# xmcd
#
# Track frame offsets: 
#        150
#        10292
#        22120
#        31912
#        41817
#        55597
#        64162
#        73017
#        82870
#        95777
#        106220
#        118260
#        127705
#        139972
#        152097
#        164520
#        176777
#        189767
#        201930
#        211685
#        223325
#        234992
#        246542
#        256360
#        269212
#        281612
#        292560
#        305852
#        318570
#        330522
#        341895
#        353857
#        364392
#        373575
#
# Disc length: 5156 seconds
#
# Revision: 0
# Processed by: cddbd v1.5.2PL0 Copyright (c) Steve Scherf et al.
# Submitted via: ExactAudioCopy v0.90b4
#
DISCID=20142222
DTITLE=Cowboy Copas - Settin' Flat On Ready
DYEAR=2008
DGENRE=Country
TTITLE0=Circle Rock
TTITLE1=My Autobiography
TTITLE2=South Pacific Shore
TTITLE3=A Thousand Miles Of Ocean
TTITLE4=New Filipino Baby
TTITLE5=Blue Kimona
TTITLE6=Cryin' Doll
TTITLE7=(Won't You Ride In) My Little Red Wagon
TTITLE8=Jamboree
TTITLE9=Alabam
TTITLE10=Settin' Flat On Ready
TTITLE11=Just A Little Tiny Bit
TTITLE12=Crazy Over You
TTITLE13=Three Strikes And You're Out
TTITLE14=How Much Do I Owe You
TTITLE15=Tragic Romance
TTITLE16=I'll Pay The Price (The Rest Of My Life)
TTITLE17=Feelin' Low
TTITLE18=Don't Shake Hands With The Devil
TTITLE19=Hangman's Boogie
TTITLE20=Texas Red
TTITLE21=Look What I Got
TTITLE22=Tell Me More
TTITLE23=Roly Poly
TTITLE24=Opportunity Is Knockin' At Your Door
TTITLE25=Tennessee Senorita
TTITLE26=Are You Honest
TTITLE27=Peaches And Cream
TTITLE28=Tennessee Flat Guitar
TTITLE29=I Can't Stop Loving You
TTITLE30=Night Plane To Memphis
TTITLE31=Don't Let Them Change Your Mind
TTITLE32=Faithful And True Love
TTITLE33=Below The Mason Dixon Line
EXTD=
EXTT0=
EXTT1=
EXTT2=
EXTT3=
EXTT4=
EXTT5=
EXTT6=
EXTT7=
EXTT8=
EXTT9=
EXTT10=
EXTT11=
EXTT12=
EXTT13=
EXTT14=
EXTT15=
EXTT16=
EXTT17=
EXTT18=
EXTT19=
EXTT20=
EXTT21=
EXTT22=
EXTT23=
EXTT24=
EXTT25=
EXTT26=
EXTT27=
EXTT28=
EXTT29=
EXTT30=
EXTT31=
EXTT32=
EXTT33=
PLAYORDER=
